<svg width="35" height="35" viewBox="0 0 35 35" fill="none" xmlns="http://www.w3.org/2000/svg">
<path d="M23.0721 19.2395H18.8232C18.0442 19.2395 17.4069 19.8768 17.4069 20.6558V24.9047C17.4069 25.6836 18.0442 26.321 18.8232 26.321H23.0721C23.851 26.321 24.4883 25.6836 24.4883 24.9047V20.6558C24.4883 19.8768 23.851 19.2395 23.0721 19.2395ZM23.0721 5.07646V6.49276H11.7417V5.07646C11.7417 4.29749 11.1043 3.66016 10.3254 3.66016C9.54639 3.66016 8.90905 4.29749 8.90905 5.07646V6.49276H7.49276C5.92066 6.49276 4.67432 7.76743 4.67432 9.32536L4.66016 29.1536C4.66016 30.7115 5.92066 31.9862 7.49276 31.9862H27.3209C28.8789 31.9862 30.1535 30.7115 30.1535 29.1536V9.32536C30.1535 7.76743 28.8789 6.49276 27.3209 6.49276H25.9046V5.07646C25.9046 4.29749 25.2673 3.66016 24.4883 3.66016C23.7094 3.66016 23.0721 4.29749 23.0721 5.07646ZM25.9046 29.1536H8.90905C8.13009 29.1536 7.49276 28.5162 7.49276 27.7373V13.5743H27.3209V27.7373C27.3209 28.5162 26.6836 29.1536 25.9046 29.1536Z" fill="white"/>
</svg>
