<svg width="29" height="29" viewBox="0 0 29 29" fill="none" xmlns="http://www.w3.org/2000/svg">
<path d="M14.4052 0.660156C6.58721 0.660156 0.242188 7.00518 0.242188 14.8232C0.242188 22.6411 6.58721 28.9862 14.4052 28.9862C22.2232 28.9862 28.5682 22.6411 28.5682 14.8232C28.5682 7.00518 22.2232 0.660156 14.4052 0.660156ZM15.6515 22.981V23.4909C15.6515 24.1707 15.0992 24.7373 14.4052 24.7373C13.7254 24.7373 13.1588 24.1849 13.1588 23.4909V22.8961C12.2666 22.6836 10.4254 22.0321 9.349 19.9218C9.02325 19.2987 9.33483 18.5197 9.98633 18.2506L10.0855 18.2081C10.6662 17.9673 11.3177 18.2081 11.6151 18.7605C12.0683 19.6244 12.9606 20.7008 14.6176 20.7008C15.9348 20.7008 17.4219 20.021 17.4219 18.4206C17.4219 17.0609 16.4305 16.3528 14.1927 15.5455C12.6348 14.9931 9.44814 14.0867 9.44814 10.8575C9.44814 10.7159 9.4623 7.45839 13.1588 6.66527V6.1554C13.1588 5.46141 13.7254 4.90906 14.4052 4.90906C15.085 4.90906 15.6515 5.46141 15.6515 6.1554V6.67943C17.167 6.94853 18.1301 7.75582 18.7107 8.52062C19.1923 9.14379 18.9373 10.0502 18.2009 10.3618C17.691 10.5743 17.0962 10.4043 16.7562 9.96525C16.3597 9.42705 15.6515 8.87469 14.4902 8.87469C13.4988 8.87469 11.9267 9.39872 11.9267 10.8434C11.9267 12.1888 13.1447 12.6987 15.6657 13.5343C19.0648 14.7098 19.9288 16.4377 19.9288 18.4206C19.9288 22.1454 16.388 22.8536 15.6515 22.981Z" fill="white"/>
</svg>
