<svg width="158" height="44" viewBox="0 0 158 44" fill="none" xmlns="http://www.w3.org/2000/svg">
<path d="M6.23348 11.8656L2.20312 19.5233V21.9415L7.03955 25.9719L15.1003 27.9871L23.161 34.0326H34.0429V39.2721L39.6855 42.0933H46.134L53.7917 34.0326L56.613 30.0023V23.9567L53.7917 11.8656L46.134 4.20797L37.6703 1.38672H27.9974L15.1003 4.20797L6.23348 11.8656Z" stroke="#1127E3" stroke-width="2.41821"/>
<path d="M2.20312 20.9101L27.933 11.9046L46.3727 14.9065L49.3745 7.1875" stroke="#1127E3" stroke-width="0.857662"/>
<path d="M15.9219 4.61523L27.9291 11.9054L48.0842 29.0586M48.0842 29.0586L46.1303 14.2881M48.0842 29.0586L34.8453 33.2308" stroke="#1127E3" stroke-width="0.857662"/>
<path d="M10.3438 18.3379L14.6321 26.4857L48.0809 29.0587L56.6575 30.774" stroke="#1127E3" stroke-width="0.857662"/>
<circle cx="10.262" cy="18.3127" r="2.41821" fill="#1127E3"/>
<circle cx="28.0009" cy="12.2685" r="2.82125" fill="#1127E3"/>
<circle cx="45.7339" cy="14.6851" r="2.01518" fill="#1127E3"/>
<circle cx="15.0965" cy="26.3758" r="1.61214" fill="#1127E3"/>
<circle cx="48.1462" cy="28.7907" r="3.22429" fill="#1127E3"/>
<path d="M72.9163 25.0312L71.183 24.3924L70.2667 26.8785H72.9163V25.0312ZM77.7449 11.9303V10.083H76.4571L76.0117 11.2915L77.7449 11.9303ZM79.916 11.9303L81.6508 11.2958L81.2073 10.083H79.916V11.9303ZM84.7072 25.0312V26.8785H87.3496L86.442 24.3968L84.7072 25.0312ZM82.611 25.0312L80.8679 25.6429L81.3015 26.8785H82.611V25.0312ZM81.4881 21.8309L83.2311 21.2193L82.7976 19.9836H81.4881V21.8309ZM76.1354 21.8309V19.9836H74.8259L74.3923 21.2193L76.1354 21.8309ZM75.0124 25.0312V26.8785H76.322L76.7555 25.6429L75.0124 25.0312ZM76.6969 20.2588L74.9556 19.642L74.0828 22.106H76.6969V20.2588ZM80.9266 20.2588V22.106H83.5407L82.6678 19.642L80.9266 20.2588ZM78.8117 14.2885L80.553 13.6717L78.8117 8.75615L77.0705 13.6717L78.8117 14.2885ZM74.6496 25.6701L79.4782 12.5691L76.0117 11.2915L71.183 24.3924L74.6496 25.6701ZM77.7449 13.7775H79.916V10.083H77.7449V13.7775ZM78.1811 12.5648L82.9723 25.6657L86.442 24.3968L81.6508 11.2958L78.1811 12.5648ZM84.7072 23.184H82.611V26.8785H84.7072V23.184ZM84.3541 24.4196L83.2311 21.2193L79.745 22.4425L80.8679 25.6429L84.3541 24.4196ZM81.4881 19.9836H76.1354V23.6781H81.4881V19.9836ZM74.3923 21.2193L73.2694 24.4196L76.7555 25.6429L77.8785 22.4425L74.3923 21.2193ZM75.0124 23.184H72.9163V26.8785H75.0124V23.184ZM76.6969 22.106H80.9266V18.4115H76.6969V22.106ZM82.6678 19.642L80.553 13.6717L77.0705 14.9053L79.1854 20.8756L82.6678 19.642ZM77.0705 13.6717L74.9556 19.642L78.4381 20.8756L80.553 14.9053L77.0705 13.6717ZM86.5341 25.0312H84.6869V26.8785H86.5341V25.0312ZM86.5341 11.9303V10.083H84.6869V11.9303H86.5341ZM88.518 11.9303H90.3652V10.083H88.518V11.9303ZM88.518 25.0312V26.8785H90.3652V25.0312H88.518ZM88.3814 25.0312V11.9303H84.6869V25.0312H88.3814ZM86.5341 13.7775H88.518V10.083H86.5341V13.7775ZM86.6707 11.9303V25.0312H90.3652V11.9303H86.6707ZM88.518 23.184H86.5341V26.8785H88.518V23.184ZM97.6887 24.7505L98.4683 23.0758L97.6887 24.7505ZM95.9855 23.3094L94.4297 24.3052L94.4367 24.3161L94.4438 24.327L95.9855 23.3094ZM95.3679 21.0822V19.235H93.4937L93.5209 21.109L95.3679 21.0822ZM97.4641 21.0822L99.311 21.0493L99.2786 19.235H97.4641V21.0822ZM98.194 22.8602L96.8709 24.1494L98.194 22.8602ZM101.975 23.0474L103.173 24.4528L103.177 24.4499L101.975 23.0474ZM102.311 20.5021L100.795 21.557L100.81 21.5787L100.826 21.6L102.311 20.5021ZM101.469 19.7909L100.597 21.4192L100.609 21.4255L100.621 21.4316L101.469 19.7909ZM98.7929 18.7989L99.3898 17.0507L99.377 17.0465L98.7929 18.7989ZM96.5096 17.4888L95.1571 18.747L95.1648 18.7553L95.1727 18.7636L96.5096 17.4888ZM95.761 15.374H97.6082V15.3583L97.6079 15.3427L95.761 15.374ZM96.2663 13.4463L94.7239 12.4297L94.7158 12.442L94.7078 12.4545L96.2663 13.4463ZM97.7635 12.1736L98.5501 13.845L98.557 13.8417L98.5639 13.8384L97.7635 12.1736ZM102.255 12.1736L101.442 13.8323L101.455 13.8384L102.255 12.1736ZM103.771 13.4837L102.219 14.4843L102.224 14.4923L102.229 14.5002L103.771 13.4837ZM104.333 15.4114V17.2586H106.212L106.18 15.3801L104.333 15.4114ZM102.237 15.4114H100.389V17.2586H102.237V15.4114ZM101.975 14.4569L100.363 15.3595L100.371 15.3736L100.379 15.3877L101.975 14.4569ZM101.207 13.6896L100.265 15.2787L100.265 15.2787L101.207 13.6896ZM99.972 13.3901L99.935 15.237L99.9535 15.2374H99.972V13.3901ZM98.4186 13.858L97.2754 12.407L97.2645 12.4156L97.2537 12.4243L98.4186 13.858ZM98.2689 16.3846L97.0206 17.7463L97.0206 17.7463L98.2689 16.3846ZM99.5041 17.0771L98.8828 18.8167L98.9013 18.8233L98.9199 18.8295L99.5041 17.0771ZM101.301 17.6947L100.688 19.4372L100.707 19.4441L100.727 19.4505L101.301 17.6947ZM103.041 18.4621L102.108 20.0563V20.0563L103.041 18.4621ZM104.258 19.6411L102.685 20.6093L102.694 20.6237L102.703 20.638L104.258 19.6411ZM104.22 23.3468L105.804 24.2972L105.809 24.2896L105.814 24.2819L104.22 23.3468ZM102.704 24.7318L103.555 26.3717L103.567 26.3655L103.578 26.3592L102.704 24.7318ZM100.215 23.4086C99.4699 23.4086 98.9032 23.2783 98.4683 23.0758L96.9091 26.4252C97.9215 26.8965 99.0392 27.1031 100.215 27.1031V23.4086ZM98.4683 23.0758C98.0326 22.873 97.7378 22.6108 97.5273 22.2919L94.4438 24.327C95.0568 25.2557 95.8974 25.9542 96.9091 26.4252L98.4683 23.0758ZM97.5414 22.3136C97.3559 22.0238 97.2233 21.6294 97.215 21.0555L93.5209 21.109C93.5375 22.2569 93.8166 23.3473 94.4297 24.3052L97.5414 22.3136ZM95.3679 22.9295H97.4641V19.235H95.3679V22.9295ZM95.6171 21.1152C95.6377 22.2692 96.0584 23.3155 96.8709 24.1494L99.517 21.5711C99.3813 21.4318 99.3154 21.2927 99.311 21.0493L95.6171 21.1152ZM96.8709 24.1494C97.7799 25.0823 98.9779 25.4374 100.197 25.4374V21.7429C99.6933 21.7429 99.5563 21.6114 99.517 21.5711L96.8709 24.1494ZM100.197 25.4374C101.237 25.4374 102.31 25.1891 103.173 24.4528L100.776 21.6419C100.774 21.6432 100.769 21.6479 100.755 21.6552C100.741 21.6627 100.715 21.6748 100.673 21.6877C100.586 21.7142 100.434 21.7429 100.197 21.7429V25.4374ZM103.177 24.4499C104.022 23.7255 104.477 22.7395 104.477 21.625H100.782C100.782 21.651 100.78 21.6615 100.78 21.66C100.78 21.6594 100.781 21.6569 100.782 21.6527C100.784 21.6485 100.786 21.6436 100.788 21.6384C100.79 21.6332 100.793 21.6286 100.795 21.6249C100.797 21.6213 100.799 21.6193 100.799 21.6191C100.8 21.6183 100.793 21.6274 100.772 21.6449L103.177 24.4499ZM104.477 21.625C104.477 20.8844 104.305 20.0912 103.797 19.4041L100.826 21.6C100.808 21.576 100.795 21.5534 100.786 21.5346C100.777 21.516 100.773 21.5041 100.773 21.5016C100.772 21.4978 100.782 21.5337 100.782 21.625H104.477ZM103.828 19.4472C103.43 18.8756 102.902 18.4524 102.318 18.1501L100.621 21.4316C100.76 21.5036 100.793 21.5546 100.795 21.557L103.828 19.4472ZM102.342 18.1626C101.877 17.9136 101.366 17.7048 100.823 17.5284L99.6828 21.0427C100.062 21.1658 100.363 21.2939 100.597 21.4192L102.342 18.1626ZM100.823 17.5284C100.371 17.3819 99.8934 17.2227 99.3898 17.0508L98.196 20.5471C98.7155 20.7245 99.2112 20.8897 99.6828 21.0427L100.823 17.5284ZM99.377 17.0465C98.5357 16.766 98.0789 16.4578 97.8465 16.2141L95.1727 18.7636C95.9634 19.5929 97.0288 20.1581 98.2087 20.5514L99.377 17.0465ZM97.8621 16.2307C97.7403 16.0997 97.6082 15.8756 97.6082 15.374H93.9137C93.9137 16.6191 94.2807 17.8049 95.1571 18.747L97.8621 16.2307ZM97.6079 15.3427C97.6008 14.9193 97.6945 14.6427 97.8247 14.438L94.7078 12.4545C94.1393 13.3478 93.8962 14.3563 93.914 15.4053L97.6079 15.3427ZM97.8087 14.4628C97.9705 14.2173 98.1989 14.0103 98.5501 13.845L96.977 10.5022C96.0555 10.9358 95.2858 11.5772 94.7239 12.4297L97.8087 14.4628ZM98.5639 13.8384C98.9188 13.6678 99.3907 13.5529 100.028 13.5529V9.85845C98.9437 9.85845 97.9059 10.0555 96.9631 10.5088L98.5639 13.8384ZM100.028 13.5529C100.65 13.5529 101.104 13.6665 101.442 13.8323L103.068 10.5149C102.134 10.0568 101.103 9.85845 100.028 9.85845V13.5529ZM101.455 13.8384C101.821 14.0146 102.056 14.2317 102.219 14.4843L105.324 12.483C104.763 11.6127 103.987 10.9565 103.056 10.5088L101.455 13.8384ZM102.229 14.5002C102.375 14.7222 102.478 15.0139 102.486 15.4427L106.18 15.3801C106.162 14.3366 105.891 13.3431 105.314 12.4671L102.229 14.5002ZM104.333 13.5642H102.237V17.2586H104.333V13.5642ZM104.084 15.4114C104.084 14.7376 103.905 14.0995 103.57 13.5261L100.379 15.3877C100.385 15.3973 100.387 15.4035 100.389 15.4064C100.39 15.4093 100.39 15.4101 100.39 15.4091C100.389 15.4081 100.389 15.407 100.389 15.4064C100.389 15.4058 100.389 15.4072 100.389 15.4114H104.084ZM103.586 13.5543C103.238 12.9319 102.738 12.4496 102.149 12.1004L100.265 15.2787C100.35 15.3288 100.362 15.358 100.363 15.3595L103.586 13.5543ZM102.149 12.1004C101.465 11.6953 100.71 11.5429 99.972 11.5429V15.2374C100.09 15.2374 100.166 15.2495 100.211 15.2602C100.232 15.2655 100.247 15.2705 100.254 15.2737C100.259 15.2753 100.261 15.2766 100.263 15.2774C100.265 15.2782 100.265 15.2787 100.265 15.2787L102.149 12.1004ZM100.009 11.5432C99.0426 11.5239 98.084 11.7699 97.2754 12.407L99.5618 15.309C99.5767 15.2973 99.6537 15.2314 99.935 15.237L100.009 11.5432ZM97.2537 12.4243C96.3692 13.143 95.9724 14.1482 95.9724 15.2055H99.6669C99.6669 15.1341 99.6787 15.1405 99.6574 15.1884C99.6474 15.211 99.6336 15.2344 99.6172 15.2555C99.6011 15.2764 99.5878 15.2881 99.5834 15.2917L97.2537 12.4243ZM95.9724 15.2055C95.9724 16.0914 96.2452 17.0355 97.0206 17.7463L99.5171 15.0229C99.5487 15.0518 99.5789 15.0865 99.6049 15.1252C99.6308 15.1638 99.6478 15.1991 99.6582 15.2264C99.6786 15.2798 99.6669 15.2837 99.6669 15.2055H95.9724ZM97.0206 17.7463C97.5556 18.2367 98.2071 18.5754 98.8828 18.8167L100.125 15.3375C99.753 15.2045 99.581 15.0815 99.5171 15.0229L97.0206 17.7463ZM98.9199 18.8295C99.432 19.0002 100.021 19.2026 100.688 19.4372L101.914 15.9522C101.233 15.7126 100.624 15.5033 100.088 15.3246L98.9199 18.8295ZM100.727 19.4505C101.269 19.6277 101.726 19.8324 102.108 20.0563L103.975 16.8679C103.334 16.4928 102.63 16.1859 101.875 15.9389L100.727 19.4505ZM102.108 20.0563C102.368 20.2086 102.55 20.3905 102.685 20.6093L105.831 18.673C105.367 17.9185 104.737 17.3144 103.975 16.8679L102.108 20.0563ZM102.703 20.638C102.775 20.751 102.879 20.9959 102.879 21.494H106.573C106.573 20.4948 106.364 19.5045 105.813 18.6442L102.703 20.638ZM102.879 21.494C102.879 21.8243 102.799 22.1194 102.627 22.4118L105.814 24.2819C106.316 23.4264 106.573 22.4862 106.573 21.494H102.879ZM102.636 22.3964C102.498 22.6274 102.261 22.8733 101.83 23.1044L103.578 26.3592C104.496 25.8666 105.269 25.1892 105.804 24.2972L102.636 22.3964ZM101.854 23.0919C101.51 23.2705 100.991 23.4086 100.215 23.4086V27.1031C101.411 27.1031 102.552 26.8919 103.555 26.3717L101.854 23.0919ZM108.766 24.6382L107.841 26.2369L107.853 26.2438L108.766 24.6382ZM107.082 22.9351L105.458 23.8158L105.467 23.8323L105.476 23.8486L107.082 22.9351ZM107.082 17.8632L105.47 16.9614L105.464 16.9708L107.082 17.8632ZM108.766 16.1413L107.853 14.5357L107.841 14.5427L108.766 16.1413ZM114.1 16.422L112.969 17.8827L112.975 17.8871L112.981 17.8914L114.1 16.422ZM115.616 18.8551V20.7023H117.913L117.421 18.459L115.616 18.8551ZM113.539 18.8551L111.744 19.2928L112.088 20.7023H113.539V18.8551ZM112.715 17.6573L113.75 16.1272L112.715 17.6573ZM109.871 17.6011L110.792 19.202L110.81 19.1916L110.828 19.1809L109.871 17.6011ZM108.879 18.6679L110.504 19.5463L110.508 19.5373L110.513 19.5283L108.879 18.6679ZM108.879 22.1303L107.244 22.9907L107.249 22.9997L107.254 23.0087L108.879 22.1303ZM109.871 23.1971L108.913 24.7769L109.871 23.1971ZM112.715 23.141L113.75 24.671L112.715 23.141ZM113.539 21.9244V20.0772H112.08L111.742 21.4966L113.539 21.9244ZM115.616 21.9244L117.423 22.3084L117.897 20.0772H115.616V21.9244ZM114.119 24.3388L112.985 22.8806V22.8806L114.119 24.3388ZM111.218 23.4086C110.597 23.4086 110.099 23.2714 109.68 23.0327L107.853 26.2438C108.881 26.8285 110.018 27.1031 111.218 27.1031V23.4086ZM109.692 23.0396C109.268 22.7941 108.939 22.4646 108.687 22.0216L105.476 23.8486C106.048 24.853 106.842 25.6588 107.841 26.2369L109.692 23.0396ZM108.706 22.0544C108.473 21.6261 108.33 21.0886 108.33 20.3898H104.636C104.636 21.6124 104.892 22.7717 105.458 23.8158L108.706 22.0544ZM108.33 20.3898C108.33 19.6901 108.474 19.1645 108.699 18.7555L105.464 16.9708C104.892 18.0092 104.636 19.168 104.636 20.3898H108.33ZM108.694 18.7649C108.948 18.3105 109.276 17.9808 109.692 17.74L107.841 14.5427C106.834 15.1253 106.039 15.9435 105.47 16.9614L108.694 18.7649ZM109.68 17.7469C110.099 17.5081 110.597 17.3709 111.218 17.3709V13.6764C110.018 13.6764 108.881 13.951 107.853 14.5357L109.68 17.7469ZM111.218 17.3709C112.03 17.3709 112.573 17.5761 112.969 17.8827L115.231 14.9614C114.08 14.0702 112.702 13.6764 111.218 13.6764V17.3709ZM112.981 17.8914C113.397 18.2082 113.675 18.6278 113.812 19.2511L117.421 18.459C117.108 17.0361 116.376 15.8336 115.22 14.9527L112.981 17.8914ZM115.616 17.0078H113.539V20.7023H115.616V17.0078ZM115.333 18.4174C115.103 17.4738 114.566 16.6792 113.75 16.1272L111.68 19.1873C111.698 19.1992 111.707 19.2076 111.711 19.2115C111.715 19.2152 111.716 19.2173 111.717 19.2185C111.718 19.2198 111.721 19.2242 111.725 19.2341C111.73 19.2442 111.737 19.2629 111.744 19.2928L115.333 18.4174ZM113.75 16.1272C112.984 15.6091 112.115 15.3796 111.218 15.3796V19.0741C111.469 19.0741 111.598 19.1315 111.68 19.1873L113.75 16.1272ZM111.218 15.3796C110.398 15.3796 109.617 15.5949 108.913 16.0214L110.828 19.1809C110.948 19.1083 111.065 19.0741 111.218 19.0741V15.3796ZM108.949 16.0003C108.197 16.4333 107.635 17.0648 107.244 17.8076L110.513 19.5283C110.621 19.3228 110.721 19.2431 110.792 19.202L108.949 16.0003ZM107.254 17.7895C106.82 18.5913 106.657 19.4882 106.657 20.3898H110.352C110.352 19.9189 110.438 19.6678 110.504 19.5463L107.254 17.7895ZM106.657 20.3898C106.657 21.2939 106.821 22.1872 107.244 22.9907L110.513 21.27C110.437 21.1252 110.352 20.8581 110.352 20.3898H106.657ZM107.254 23.0087C107.645 23.7325 108.195 24.3419 108.913 24.7769L110.828 21.6174C110.722 21.5532 110.611 21.4514 110.504 21.2519L107.254 23.0087ZM108.913 24.7769C109.617 25.2034 110.398 25.4187 111.218 25.4187V21.7242C111.065 21.7242 110.948 21.69 110.828 21.6174L108.913 24.7769ZM111.218 25.4187C112.115 25.4187 112.984 25.1892 113.75 24.671L111.68 21.6109C111.598 21.6667 111.469 21.7242 111.218 21.7242V25.4187ZM113.75 24.671C114.579 24.1106 115.11 23.3006 115.336 22.3523L111.742 21.4966C111.726 21.5633 111.71 21.5857 111.71 21.5861C111.709 21.5876 111.708 21.589 111.705 21.5915C111.702 21.594 111.695 21.6008 111.68 21.6109L113.75 24.671ZM113.539 23.7717H115.616V20.0772H113.539V23.7717ZM113.809 21.5405C113.685 22.124 113.418 22.5439 112.985 22.8806L115.253 25.7969C116.392 24.9109 117.123 23.7213 117.423 22.3084L113.809 21.5405ZM112.985 22.8806C112.571 23.2023 112.021 23.4086 111.218 23.4086V27.1031C112.711 27.1031 114.095 26.698 115.253 25.7969L112.985 22.8806ZM117.768 25.0312H115.921V26.8785H117.768V25.0312ZM117.768 11.556V9.70872H115.921V11.556H117.768ZM119.752 11.556H121.599V9.70872H119.752V11.556ZM119.752 17.2455H117.904V24.098L121.349 18.174L119.752 17.2455ZM121.043 15.9916L121.928 17.6133L121.934 17.6098L121.94 17.6064L121.043 15.9916ZM125.516 16.5718L126.882 15.328L125.516 16.5718ZM126.471 25.0312V26.8785H128.318V25.0312H126.471ZM124.505 25.0312H122.658V26.8785H124.505V25.0312ZM120.482 17.9942L119.144 16.7202L119.136 16.7286L119.128 16.7372L120.482 17.9942ZM119.752 25.0312V26.8785H121.599V25.0312H119.752ZM119.615 25.0312V11.556H115.921V25.0312H119.615ZM117.768 13.4032H119.752V9.70872H117.768V13.4032ZM117.904 11.556V17.2455H121.599V11.556H117.904ZM121.349 18.174C121.49 17.9317 121.673 17.7524 121.928 17.6133L120.158 14.3699C119.316 14.8297 118.638 15.4864 118.155 16.3171L121.349 18.174ZM121.94 17.6064C122.214 17.4545 122.52 17.3709 122.896 17.3709V13.6764C121.924 13.6764 120.995 13.9049 120.146 14.3768L121.94 17.6064ZM122.896 17.3709C123.586 17.3709 123.926 17.5691 124.15 17.8156L126.882 15.328C125.834 14.177 124.427 13.6764 122.896 13.6764V17.3709ZM124.15 17.8156C124.359 18.0452 124.623 18.5618 124.623 19.6973H128.318C128.318 18.0629 127.945 16.4958 126.882 15.328L124.15 17.8156ZM124.623 19.6973V25.0312H128.318V19.6973H124.623ZM126.471 23.184H124.505V26.8785H126.471V23.184ZM126.353 25.0312V19.9032H122.658V25.0312H126.353ZM126.353 19.9032C126.353 18.808 126.142 17.6449 125.411 16.7291C124.616 15.734 123.479 15.3609 122.353 15.3609V19.0554C122.522 19.0554 122.585 19.082 122.583 19.0813C122.57 19.0758 122.541 19.0562 122.524 19.0346C122.51 19.0172 122.658 19.2016 122.658 19.9032H126.353ZM122.353 15.3609C121.119 15.3609 120.005 15.8161 119.144 16.7202L121.819 19.2681C121.956 19.1241 122.09 19.0554 122.353 19.0554V15.3609ZM119.128 16.7372C118.224 17.7102 117.904 18.9712 117.904 20.24H121.599C121.599 19.5624 121.766 19.3262 121.835 19.2511L119.128 16.7372ZM117.904 20.24V25.0312H121.599V20.24H117.904ZM119.752 23.184H117.768V26.8785H119.752V23.184ZM130.754 24.6569L129.816 26.2484L129.832 26.2582L129.849 26.2677L130.754 24.6569ZM129.088 22.9538L127.476 23.8556L127.482 23.8673L129.088 22.9538ZM129.088 17.8444L127.487 16.9221L127.482 16.9309L129.088 17.8444ZM130.791 16.1413L131.695 17.7521L131.706 17.7461L131.717 17.74L130.791 16.1413ZM135.545 16.1413L134.607 17.7328L134.624 17.7426L134.64 17.7521L135.545 16.1413ZM137.229 17.8444L135.617 18.7462L135.626 18.7625L135.636 18.7786L137.229 17.8444ZM137.229 22.9538L135.629 22.0315L135.624 22.0403L137.229 22.9538ZM135.545 24.6569L136.449 26.2677L136.46 26.2617L136.47 26.2556L135.545 24.6569ZM134.459 23.1971L133.538 21.5962L133.527 21.6024L133.516 21.6088L134.459 23.1971ZM135.451 22.149L137.076 23.0274L137.081 23.0184L137.086 23.0094L135.451 22.149ZM135.451 18.6492L133.799 19.4753L133.812 19.5017L133.826 19.5276L135.451 18.6492ZM134.478 17.5824L133.535 19.1708L133.546 19.1771L133.556 19.1833L134.478 17.5824ZM131.839 17.5824L130.917 15.9815L130.907 15.9877L130.896 15.9941L131.839 17.5824ZM130.866 18.6492L132.491 19.5276L132.496 19.5186L132.5 19.5096L130.866 18.6492ZM130.866 22.149L129.231 23.0094L129.236 23.0184L129.241 23.0274L130.866 22.149ZM131.839 23.1971L132.782 21.6088L131.839 23.1971ZM133.149 23.4086C132.552 23.4086 132.069 23.2772 131.658 23.0462L129.849 26.2677C130.86 26.8352 131.975 27.1031 133.149 27.1031V23.4086ZM131.691 23.0655C131.278 22.822 130.95 22.4914 130.693 22.0403L127.482 23.8673C128.049 24.8636 128.831 25.6684 129.816 26.2484L131.691 23.0655ZM130.7 22.0521C130.465 21.6313 130.317 21.0963 130.317 20.3898H126.623C126.623 21.6296 126.887 22.804 127.476 23.8556L130.7 22.0521ZM130.317 20.3898C130.317 19.6823 130.465 19.1594 130.693 18.7579L127.482 16.9309C126.887 17.9768 126.623 19.1508 126.623 20.3898H130.317ZM130.688 18.7668C130.954 18.306 131.286 17.9817 131.695 17.7521L129.887 14.5305C128.873 15.0994 128.07 15.9106 127.487 16.9221L130.688 18.7668ZM131.717 17.74C132.129 17.5014 132.598 17.3709 133.168 17.3709V13.6764C131.991 13.6764 130.876 13.9578 129.865 14.5427L131.717 17.74ZM133.168 17.3709C133.755 17.3709 134.218 17.5037 134.607 17.7328L136.483 14.5498C135.474 13.9554 134.352 13.6764 133.168 13.6764V17.3709ZM134.64 17.7521C135.044 17.9789 135.365 18.2964 135.617 18.7462L138.841 16.9427C138.269 15.9202 137.467 15.1023 136.449 14.5305L134.64 17.7521ZM135.636 18.7786C135.869 19.1763 136.018 19.6917 136.018 20.3898H139.713C139.713 19.1414 139.438 17.9599 138.823 16.9102L135.636 18.7786ZM136.018 20.3898C136.018 21.087 135.869 21.6145 135.629 22.0315L138.83 23.8761C139.438 22.8208 139.713 21.6389 139.713 20.3898H136.018ZM135.624 22.0403C135.372 22.4833 135.043 22.8129 134.619 23.0583L136.47 26.2556C137.469 25.6775 138.263 24.8717 138.835 23.8673L135.624 22.0403ZM134.64 23.0462C134.229 23.2772 133.746 23.4086 133.149 23.4086V27.1031C134.324 27.1031 135.438 26.8352 136.449 26.2677L134.64 23.0462ZM133.149 25.4C133.948 25.4 134.711 25.1957 135.402 24.7855L133.516 21.6088C133.409 21.6726 133.299 21.7055 133.149 21.7055V25.4ZM135.381 24.798C136.12 24.3724 136.681 23.758 137.076 23.0274L133.826 21.2706C133.722 21.4634 133.622 21.5477 133.538 21.5962L135.381 24.798ZM137.086 23.0094C137.511 22.2016 137.673 21.3001 137.673 20.3898H133.978C133.978 20.8768 133.89 21.1482 133.817 21.2887L137.086 23.0094ZM137.673 20.3898C137.673 19.4821 137.512 18.5769 137.076 17.7708L133.826 19.5276C133.89 19.6448 133.978 19.9 133.978 20.3898H137.673ZM137.103 17.8231C136.724 17.0635 136.161 16.4201 135.4 15.9815L133.556 19.1833C133.618 19.2189 133.705 19.2866 133.799 19.4753L137.103 17.8231ZM135.421 15.9941C134.73 15.5838 133.967 15.3796 133.168 15.3796V19.0741C133.317 19.0741 133.427 19.1069 133.535 19.1708L135.421 15.9941ZM133.168 15.3796C132.37 15.3796 131.609 15.5834 130.917 15.9815L132.761 19.1833C132.893 19.1073 133.018 19.0741 133.168 19.0741V15.3796ZM130.896 15.9941C130.161 16.4307 129.615 17.0602 129.231 17.7889L132.5 19.5096C132.616 19.29 132.719 19.2083 132.782 19.1708L130.896 15.9941ZM129.241 17.7708C128.805 18.5769 128.644 19.4821 128.644 20.3898H132.339C132.339 19.9 132.428 19.6448 132.491 19.5276L129.241 17.7708ZM128.644 20.3898C128.644 21.3001 128.806 22.2016 129.231 23.0094L132.5 21.2887C132.427 21.1482 132.339 20.8768 132.339 20.3898H128.644ZM129.241 23.0274C129.628 23.7439 130.173 24.3564 130.896 24.7855L132.782 21.6088C132.706 21.5637 132.603 21.4774 132.491 21.2706L129.241 23.0274ZM130.896 24.7855C131.587 25.1957 132.35 25.4 133.149 25.4V21.7055C133 21.7055 132.89 21.6726 132.782 21.6088L130.896 24.7855ZM141.957 24.6569L141.02 26.2484L141.036 26.2582L141.053 26.2677L141.957 24.6569ZM140.292 22.9538L138.679 23.8556L138.686 23.8673L140.292 22.9538ZM140.292 17.8444L138.691 16.9221L138.686 16.9309L140.292 17.8444ZM141.995 16.1413L142.899 17.7521L142.91 17.7461L142.92 17.74L141.995 16.1413ZM146.749 16.1413L145.811 17.7328L145.827 17.7426L145.844 17.7521L146.749 16.1413ZM148.433 17.8444L146.821 18.7462L146.83 18.7625L146.839 18.7786L148.433 17.8444ZM148.433 22.9538L146.832 22.0315L146.827 22.0403L148.433 22.9538ZM146.749 24.6569L147.653 26.2677L147.664 26.2617L147.674 26.2556L146.749 24.6569ZM145.663 23.1971L144.741 21.5962L144.731 21.6024L144.72 21.6088L145.663 23.1971ZM146.655 22.149L148.28 23.0274L148.285 23.0184L148.29 23.0094L146.655 22.149ZM146.655 18.6492L145.003 19.4753L145.016 19.5017L145.03 19.5276L146.655 18.6492ZM145.682 17.5824L144.739 19.1708L144.749 19.1771L144.76 19.1833L145.682 17.5824ZM143.043 17.5824L142.121 15.9815L142.11 15.9877L142.1 15.9941L143.043 17.5824ZM142.07 18.6492L143.695 19.5276L143.7 19.5186L143.704 19.5096L142.07 18.6492ZM142.07 22.149L140.435 23.0094L140.44 23.0184L140.445 23.0274L142.07 22.149ZM143.043 23.1971L143.986 21.6088L143.043 23.1971ZM144.353 23.4086C143.756 23.4086 143.273 23.2772 142.862 23.0462L141.053 26.2677C142.064 26.8352 143.178 27.1031 144.353 27.1031V23.4086ZM142.895 23.0655C142.482 22.822 142.154 22.4914 141.897 22.0403L138.686 23.8673C139.253 24.8636 140.035 25.6684 141.02 26.2484L142.895 23.0655ZM141.904 22.0521C141.669 21.6313 141.521 21.0963 141.521 20.3898H137.827C137.827 21.6296 138.091 22.804 138.679 23.8556L141.904 22.0521ZM141.521 20.3898C141.521 19.6823 141.669 19.1594 141.897 18.7579L138.686 16.9309C138.091 17.9768 137.827 19.1508 137.827 20.3898H141.521ZM141.892 18.7668C142.158 18.306 142.49 17.9817 142.899 17.7521L141.09 14.5305C140.077 15.0994 139.274 15.9106 138.691 16.9221L141.892 18.7668ZM142.92 17.74C143.332 17.5014 143.802 17.3709 144.372 17.3709V13.6764C143.194 13.6764 142.079 13.9578 141.069 14.5427L142.92 17.74ZM144.372 17.3709C144.959 17.3709 145.422 17.5037 145.811 17.7328L147.686 14.5498C146.678 13.9554 145.556 13.6764 144.372 13.6764V17.3709ZM145.844 17.7521C146.248 17.9789 146.569 18.2964 146.821 18.7462L150.045 16.9427C149.473 15.9202 148.671 15.1023 147.653 14.5305L145.844 17.7521ZM146.839 18.7786C147.072 19.1763 147.222 19.6917 147.222 20.3898H150.917C150.917 19.1414 150.642 17.9599 150.027 16.9102L146.839 18.7786ZM147.222 20.3898C147.222 21.087 147.073 21.6145 146.832 22.0315L150.033 23.8761C150.642 22.8208 150.917 21.6389 150.917 20.3898H147.222ZM146.827 22.0403C146.575 22.4833 146.247 22.8129 145.823 23.0583L147.674 26.2556C148.673 25.6775 149.467 24.8717 150.039 23.8673L146.827 22.0403ZM145.844 23.0462C145.433 23.2772 144.95 23.4086 144.353 23.4086V27.1031C145.527 27.1031 146.642 26.8352 147.653 26.2677L145.844 23.0462ZM144.353 25.4C145.152 25.4 145.915 25.1957 146.606 24.7855L144.72 21.6088C144.612 21.6726 144.503 21.7055 144.353 21.7055V25.4ZM146.585 24.798C147.324 24.3724 147.885 23.758 148.28 23.0274L145.03 21.2706C144.926 21.4634 144.826 21.5477 144.741 21.5962L146.585 24.798ZM148.29 23.0094C148.715 22.2016 148.877 21.3001 148.877 20.3898H145.182C145.182 20.8768 145.094 21.1482 145.02 21.2887L148.29 23.0094ZM148.877 20.3898C148.877 19.4821 148.716 18.5769 148.28 17.7708L145.03 19.5276C145.093 19.6448 145.182 19.9 145.182 20.3898H148.877ZM148.307 17.8231C147.927 17.0635 147.365 16.4201 146.603 15.9815L144.76 19.1833C144.822 19.2189 144.908 19.2866 145.003 19.4753L148.307 17.8231ZM146.625 15.9941C145.934 15.5838 145.17 15.3796 144.372 15.3796V19.0741C144.521 19.0741 144.631 19.1069 144.739 19.1708L146.625 15.9941ZM144.372 15.3796C143.573 15.3796 142.813 15.5834 142.121 15.9815L143.965 19.1833C144.097 19.1073 144.222 19.0741 144.372 19.0741V15.3796ZM142.1 15.9941C141.364 16.4307 140.819 17.0602 140.435 17.7889L143.704 19.5096C143.82 19.29 143.923 19.2083 143.986 19.1708L142.1 15.9941ZM140.445 17.7708C140.009 18.5769 139.848 19.4821 139.848 20.3898H143.543C143.543 19.9 143.631 19.6448 143.695 19.5276L140.445 17.7708ZM139.848 20.3898C139.848 21.3001 140.01 22.2016 140.435 23.0094L143.704 21.2887C143.63 21.1482 143.543 20.8768 143.543 20.3898H139.848ZM140.445 23.0274C140.832 23.7439 141.377 24.3564 142.1 24.7855L143.986 21.6088C143.91 21.5637 143.806 21.4774 143.695 21.2706L140.445 23.0274ZM142.1 24.7855C142.791 25.1957 143.554 25.4 144.353 25.4V21.7055C144.203 21.7055 144.094 21.6726 143.986 21.6088L142.1 24.7855ZM151.215 25.0312H149.367V26.8785H151.215V25.0312ZM151.215 11.556V9.70872H149.367V11.556H151.215ZM153.199 11.556H155.046V9.70872H153.199V11.556ZM153.199 25.0312V26.8785H155.046V25.0312H153.199ZM153.062 25.0312V11.556H149.367V25.0312H153.062ZM151.215 13.4032H153.199V9.70872H151.215V13.4032ZM151.351 11.556V25.0312H155.046V11.556H151.351ZM153.199 23.184H151.215V26.8785H153.199V23.184Z" fill="#1127E3"/>
<circle cx="112.234" cy="13.0777" r="1.61214" fill="#1127E3" stroke="#1127E3" stroke-width="0.806072"/>
</svg>
