<svg width="145" height="39" viewBox="0 0 145 39" fill="none" xmlns="http://www.w3.org/2000/svg">
<path fill-rule="evenodd" clip-rule="evenodd" d="M13.3957 1.91798C4.69966 5.02004 -0.744654 13.2097 0.140867 21.8559C0.795443 28.2411 4.71333 33.9976 10.4419 36.9917C15.4496 39.6087 22.6848 39.6059 27.7 36.9856C34.655 33.3513 38.7813 25.9104 38.0031 18.4074C37.5453 13.9894 36.23 11.0629 34.8293 11.3444C33.6944 11.5733 33.6465 12.5114 34.4808 18.1853C35.462 24.8616 31.9363 31.2044 25.6044 34.1527C21.1406 36.2313 16.9781 36.2319 12.5737 34.1555C8.50276 32.2355 6.64699 30.3462 4.77346 26.2138C-0.0682141 15.5342 8.54376 3.77921 20.7108 4.45975C24.2105 4.65517 24.8808 4.50758 25.079 3.49702C25.5579 1.05842 18.4847 0.10252 13.3957 1.91798ZM37.5132 3.36447C37.5132 3.95003 37.8254 4.23632 38.2074 4.00059C38.5893 3.76418 38.7253 3.28521 38.5087 2.93537C37.9231 1.98767 37.5132 2.16396 37.5132 3.36447ZM27.5271 6.01557C26.9867 7.42379 28.4407 9.16204 29.7416 8.66256C31.1047 8.13986 30.6429 5.44572 29.141 5.15942C28.4823 5.03439 27.756 5.41907 27.5271 6.01557ZM35.3335 5.38969C35.1108 5.61243 35.0889 6.40708 35.2843 7.15458C35.7394 8.89556 37.8548 8.55461 37.8548 6.74052C37.8548 5.44777 36.1753 4.54789 35.3335 5.38969ZM32.047 7.08215C32.047 7.45795 32.3545 7.76543 32.7303 7.76543C33.1061 7.76543 33.4135 7.45795 33.4135 7.08215C33.4135 6.70635 33.1061 6.39888 32.7303 6.39888C32.3545 6.39888 32.047 6.70635 32.047 7.08215ZM84.0905 11.1832C84.3235 16.1007 84.0816 16.7143 82.6092 14.9398C81.4668 13.563 76.5048 13.6177 74.4898 15.0293C72.6628 16.3084 70.9935 19.8764 70.9935 22.5016C70.9935 25.2552 73.0112 28.895 75.1513 30.0019C77.6459 31.2919 81.5269 31.2762 82.6092 29.9718C83.6437 28.7248 84.659 28.6401 84.659 29.801C84.659 30.2711 85.4277 30.6551 86.3672 30.6551H88.0754V18.527V6.39888H85.9695H83.8637L84.0905 11.1832ZM22.7934 12.3762C22.9977 12.9084 23.1644 13.4899 23.1644 13.6696C23.1644 13.8486 23.4719 13.8056 23.8477 13.5732C24.9102 12.9166 24.6519 11.4093 23.4767 11.4093C22.8481 11.4093 22.572 11.8002 22.7934 12.3762ZM17.9456 12.89C17.4038 14.3003 18.1383 15.9647 19.3012 15.9647C19.8307 15.9647 20.6466 15.5035 21.1146 14.9398C21.7931 14.1219 21.7931 13.7079 21.1146 12.89C20.6466 12.3263 19.8307 11.8651 19.3012 11.8651C18.7717 11.8651 18.1615 12.3263 17.9456 12.89ZM42.2961 22.3376V30.7603L44.3459 30.459C46.3766 30.1611 46.3957 30.1173 46.3957 25.8271C46.3957 20.8856 47.3502 18.2373 49.3611 17.5991C51.9077 16.7908 53.2284 19.4856 53.2284 25.4882V30.7603L55.2783 30.459L57.3281 30.1583V25.1117C57.3281 20.9751 57.5747 19.8177 58.6946 18.6978C61.962 15.4304 64.1608 18.1806 64.1608 25.5346V30.7002L66.0398 30.6148L67.9188 30.5294V23.6584C67.9188 17.8601 67.7159 16.5633 66.6172 15.3511C65.0149 13.5835 60.4206 13.3976 58.1214 15.0081C56.6913 16.0098 56.4603 16.0098 55.3534 15.0081C53.8366 13.6347 49.892 13.5931 47.9836 14.9302C46.7018 15.828 46.4893 15.828 46.145 14.9302C45.9304 14.372 44.9772 13.9149 44.0254 13.9149H42.2961V22.3376ZM94.1476 15.8342C90.0425 19.502 90.8494 27.5195 95.5688 29.9602C98.334 31.3903 102.337 31.2529 104.986 29.6377C107.54 28.0805 107.79 26.9066 105.83 25.6822C104.662 24.9532 104.153 25.0434 102.491 26.2719C100.404 27.8154 98.4966 27.6548 96.6204 25.7786C94.7093 23.8674 95.5715 23.4807 101.741 23.4807H107.89V21.0209C107.89 19.1344 107.348 18.0193 105.567 16.238C103.534 14.2053 102.81 13.9149 99.7703 13.9149C96.9278 13.9149 95.9057 14.264 94.1476 15.8342ZM111.307 22.3075V30.7002L113.186 30.6209C115.048 30.5423 115.067 30.4911 115.406 24.904C115.682 20.3609 116.006 19.0791 117.074 18.2994C118.618 17.1727 119.457 17.1058 120.872 17.9981C121.606 18.4607 121.994 20.3322 122.239 24.5924C122.579 30.5191 122.587 30.5417 124.46 30.6209L126.339 30.7002V24.108C126.339 18.473 126.133 17.254 124.922 15.7153C123.785 14.2681 122.929 13.9149 120.565 13.9149C118.784 13.9149 117.288 14.3194 116.773 14.9398C116.305 15.5035 115.652 15.9647 115.323 15.9647C114.993 15.9647 114.723 15.5035 114.723 14.9398C114.723 14.3023 114.078 13.9149 113.015 13.9149H111.307V22.3075ZM131.634 15.1161C129.322 16.5496 129.305 16.8591 131.477 18.022C132.8 18.7299 133.386 18.7566 134.005 18.1375C135.154 16.9882 138.349 17.1406 139.614 18.4047C141.377 20.1682 140.868 20.5645 137.282 20.2201C130.35 19.5539 126.652 25.3194 131.259 29.611C133.041 31.2721 137.376 31.4771 138.881 29.9718C140.137 28.7159 140.687 28.6708 140.687 29.8235C140.687 30.3442 141.451 30.6674 142.566 30.6195L144.445 30.5389L144.642 24.2501C144.836 18.0788 144.801 17.9236 142.816 15.9381C141.073 14.195 140.288 13.9176 137.153 13.9333C134.942 13.9443 132.776 14.4082 131.634 15.1161ZM13.1552 15.6415C12.9037 16.2981 13.1231 17.0429 13.6697 17.3893C15.0239 18.2455 15.9901 17.7747 15.9901 16.2585C15.9901 14.6084 13.74 14.1185 13.1552 15.6415ZM23.8142 17.7132C23.1801 18.4771 23.1801 18.9185 23.8142 19.6824C24.846 20.9259 26.5808 20.309 26.5808 18.6978C26.5808 17.0866 24.846 16.4696 23.8142 17.7132ZM19.7481 17.9742C19.7481 18.3281 20.0555 18.8071 20.4313 19.0394C20.8071 19.2717 21.1146 18.982 21.1146 18.3965C21.1146 17.8109 20.8071 17.3312 20.4313 17.3312C20.0555 17.3312 19.7481 17.6203 19.7481 17.9742ZM81.9642 18.0145C82.2997 18.0145 83.0369 18.9096 83.6027 20.0028C85.6764 24.0137 82.6679 27.7457 78.2547 26.6381C76.0812 26.0929 74.7994 22.9758 75.7355 20.5133C76.4618 18.6035 78.8423 17.1891 80.4446 17.7159C80.9447 17.8799 81.6287 18.0145 81.9642 18.0145ZM102.717 18.4047C103.308 18.9957 103.791 19.6106 103.791 19.7712C103.791 19.9325 101.898 20.0643 99.5851 20.0643C95.4226 20.0643 95.3925 20.05 96.6163 18.6978C98.0956 17.0634 101.225 16.9131 102.717 18.4047ZM14.9652 20.7476C13.943 22.6574 15.2207 24.8473 17.3566 24.8473C19.1502 24.8473 20.4621 23.0824 19.895 21.4309C19.0894 19.0832 16.0796 18.6657 14.9652 20.7476ZM10.9953 21.9433C11.1224 22.6007 11.6786 23.1391 12.2321 23.1391C12.7855 23.1391 13.3417 22.6007 13.4688 21.9433C13.63 21.1043 13.2611 20.7476 12.2321 20.7476C11.2031 20.7476 10.8341 21.1043 10.9953 21.9433ZM140.169 24.069C140.447 24.3396 140.187 25.2579 139.591 26.1093C138.199 28.0962 134.345 27.965 133.956 25.9173C133.475 23.3803 138.057 22.0171 140.169 24.069ZM19.802 25.9289C19.8348 26.7249 19.9968 26.8868 20.2147 26.3423C20.4122 25.8489 20.3876 25.2593 20.1608 25.0324C19.9339 24.8056 19.7727 25.2087 19.802 25.9289Z" fill="#1127E3"/>
</svg>
