<svg width="196" height="41" viewBox="0 0 196 41" fill="none" xmlns="http://www.w3.org/2000/svg">
<path fill-rule="evenodd" clip-rule="evenodd" d="M7.60524 1.10748C6.11109 2.60135 7.113 4.91741 9.25325 4.91741C10.6518 4.91741 11.4152 4.12982 11.4152 2.68771C11.4152 0.646183 9.0482 -0.335762 7.60524 1.10748ZM16.2551 2.61654L14.7663 4.77677L16.3356 4.86143C17.1988 4.90812 18.5352 4.90812 19.305 4.86143L20.705 4.77677L19.3987 2.80781C18.6803 1.72489 18.014 0.752788 17.9183 0.64759C17.8224 0.542391 17.0739 1.42842 16.2551 2.61654ZM24.7633 1.10748C23.2691 2.60135 24.271 4.91741 26.4113 4.91741C27.8098 4.91741 28.5732 4.12982 28.5732 2.68771C28.5732 0.646183 26.2062 -0.335762 24.7633 1.10748ZM0.726562 16.1236C0.726562 24.682 0.782537 25.8612 1.28209 27.8146C2.11524 31.0719 3.33121 33.1457 5.91728 35.7206C8.39366 38.1865 10.5474 39.4413 13.6803 40.2438C16.1691 40.8815 20.9944 40.6637 23.4322 39.8042C28.2295 38.1125 32.1637 34.1156 33.9619 29.1074C34.597 27.3376 34.621 26.9477 34.7056 16.9421L34.7931 6.60508H17.7597H0.726562V16.1236ZM31.6672 12.7609V15.8223L19.1726 23.6258C12.3006 27.9176 6.57323 31.4336 6.44468 31.4389C6.04752 31.4552 4.70666 28.7344 4.25239 26.9908C3.9143 25.6924 3.82063 23.6368 3.82063 17.5159V9.69915H17.7439H31.6672V12.7609ZM94.1112 12.7932V14.7622H96.3614H98.6116V12.7932V10.8243H96.3614H94.1112V12.7932ZM160.212 12.7932V14.7622H162.462H164.712V12.7932V10.8243H162.462H160.212V12.7932ZM51.9193 19.0708C51.9193 27.9533 52.0743 29.0042 53.6967 31.1312C54.2669 31.8788 55.2443 32.6577 56.2713 33.1831C57.8529 33.9918 58.0855 34.0298 61.4628 34.0298C64.7645 34.0298 65.0944 33.9792 66.444 33.2675C67.2389 32.8481 68.3491 31.9677 68.9114 31.3109C70.6584 29.27 70.8263 28.2833 70.9757 19.1923L71.1085 11.1055H68.9679H66.8271L66.8254 18.6298C66.8246 22.9375 66.6997 26.6012 66.5335 27.2001C65.8775 29.5619 64.0163 30.8631 61.3166 30.8477C59.416 30.8367 58.6799 30.5667 57.4678 29.4359C56.0693 28.1314 55.8572 26.6918 55.8572 18.5082V11.1055H53.8883H51.9193V19.0708ZM136.303 22.4973V33.8891H138.413H140.522V22.4973V11.1055H138.413H136.303V22.4973ZM7.75854 16.042C7.75854 19.4578 7.99453 20.3503 9.26816 21.7505C11.6737 24.3951 16.4059 23.5898 17.9091 20.2797C18.3211 19.3723 18.4362 18.4379 18.441 15.9576L18.4471 12.7932H16.6188H14.7905V15.7466C14.7905 18.3251 14.7191 18.7715 14.228 19.2626C13.552 19.9385 12.8818 19.9765 12.0404 19.3872C11.459 18.9802 11.4152 18.7333 11.4152 15.8713V12.7932H9.58685H7.75854V16.042ZM169.775 15.7466V18.1375H168.228H166.681V19.6846V21.2316H168.205H169.728L169.822 25.9644C169.913 30.543 169.94 30.7343 170.664 31.8274C171.655 33.3232 173.079 33.9792 175.646 34.1209C178.02 34.252 178.203 34.1206 178.209 32.2718L178.214 31.0764H176.929C174.213 31.0764 173.713 30.1155 173.713 24.8972V21.2316H175.823H177.932V19.6846V18.1375H175.823H173.713V15.7466V13.3558H171.744H169.775V15.7466ZM81.5009 18.4599C80.8306 18.7915 80.1356 19.2978 79.9564 19.5847C79.4633 20.3743 79.2034 20.2145 79.2034 19.122V18.1375H77.2344H75.2655V26.0133V33.8891H77.3751H79.4847L79.4858 28.7558C79.4866 24.1032 79.5398 23.5353 80.0545 22.6914C81.0787 21.0113 83.6369 20.4344 84.9688 21.5832C86.0014 22.4743 86.221 23.7974 86.2286 29.1777L86.2354 33.8891H88.2043H90.1733V28.3148C90.1733 22.0931 89.8847 20.4603 88.5627 19.1988C87.4949 18.1803 86.504 17.8562 84.4591 17.8565C83.2471 17.8565 82.3498 18.0396 81.5009 18.4599ZM122.582 18.5814C119.771 19.9819 118.467 22.3286 118.452 26.0133C118.443 28.0774 118.55 28.6247 119.233 30.0159C120.643 32.8864 122.981 34.1704 126.797 34.1704C128.82 34.1704 131.477 33.4276 132.381 32.609C132.857 32.1787 132.854 32.0994 132.325 30.8252L131.77 29.4919L130.2 30.284C127.631 31.5801 124.369 31.2378 123.268 29.5572C123.042 29.2123 122.728 28.4636 122.571 27.8937L122.284 26.8572H127.787H133.29L133.108 24.9057C132.899 22.6532 132.614 21.7798 131.614 20.3267C129.943 17.8967 125.628 17.0633 122.582 18.5814ZM148.856 18.2692C146.736 19.025 144.758 21.098 144.183 23.1674C143.749 24.7296 143.842 28.0003 144.363 29.5304C144.97 31.3109 146.757 33.0979 148.538 33.7046C151.143 34.5923 155.468 34.1223 157.195 32.7635L157.912 32.1995L157.336 30.8353L156.76 29.4711L155.462 30.1979C153.739 31.1627 151.09 31.2322 149.896 30.3436C148.547 29.3389 148.001 28.0923 148.001 26.0133C148.001 22.9378 149.404 21.2355 152.113 21.0218C153.343 20.9247 153.88 21.0457 155.201 21.7185L156.8 22.5328L157.281 21.2746C157.886 19.6882 157.671 19.3135 155.685 18.4978C153.894 17.7626 150.587 17.652 148.856 18.2692ZM94.3925 26.0133V33.8891H96.3614H98.3304V26.0133V18.1375H96.3614H94.3925V26.0133ZM100.299 18.2377C100.299 18.3057 101.801 21.8237 103.637 26.055L106.974 33.7485H108.877H110.781L113.968 26.4783C115.721 22.4796 117.232 18.967 117.325 18.6728C117.481 18.1817 117.334 18.1375 115.542 18.1375H113.589L111.819 22.427C110.846 24.7864 109.806 27.2861 109.509 27.9823L108.969 29.248L106.774 23.7631L104.579 18.2782L102.439 18.196C101.262 18.1507 100.299 18.1696 100.299 18.2377ZM160.493 26.0133V33.8891H162.462H164.431V26.0133V18.1375H162.462H160.493V26.0133ZM180.599 22.8489C181.728 25.4404 183.224 28.8602 183.923 30.4485L185.195 33.3367L183.814 36.4218C183.054 38.1187 182.433 39.5777 182.433 39.6638C182.433 39.7502 183.349 39.7833 184.469 39.7381L186.504 39.6554L191.219 28.9679C193.812 23.09 195.934 18.2427 195.934 18.1966C195.934 18.1507 195.024 18.1502 193.911 18.1955L191.889 18.2782L189.686 23.6053C188.474 26.5351 187.438 28.9783 187.382 29.0343C187.326 29.0902 186.292 26.6614 185.086 23.6368L182.892 18.1375H180.719H178.546L180.599 22.8489ZM31.6672 20.9227V22.5829L24.2837 27.1562C20.2229 29.6716 16.8455 31.7745 16.7786 31.8291C16.6048 31.9717 18.5051 33.8891 18.8201 33.8891C19.0254 33.8891 26.942 29.0748 30.8009 26.6032L31.4819 26.1672L31.2912 27.1449C31.1865 27.683 30.7238 28.8939 30.2631 29.8365C26.3131 37.9176 15.7744 40.0984 8.74301 34.2894C8.43361 34.0337 8.30703 33.771 8.46173 33.7058C8.61644 33.6405 13.8693 30.3684 20.1348 26.4347C26.4003 22.501 31.5581 19.2778 31.5969 19.2725C31.6357 19.2671 31.6672 20.0097 31.6672 20.9227ZM127.874 21.0957C128.806 21.5776 129.552 22.8205 129.552 23.8897V24.6069H126.036C122.532 24.6069 122.52 24.6047 122.52 23.9454C122.52 23.0866 123.611 21.4774 124.498 21.0288C125.441 20.5515 126.877 20.5799 127.874 21.0957Z" fill="#1127E3"/>
</svg>
