<svg xmlns="http://www.w3.org/2000/svg" width="124" height="39" fill="none"><path fill="#1127E3" d="M48.088 25V13.8h3.824c1.312 0 2.39.235 3.232.704.853.459 1.483 1.11 1.888 1.952.416.832.624 1.813.624 2.944 0 1.13-.208 2.117-.624 2.96-.405.832-1.035 1.483-1.888 1.952-.843.459-1.92.688-3.232.688h-3.824Zm2.048-1.76h1.68c.939 0 1.68-.15 2.224-.448.544-.31.933-.747 1.168-1.312.235-.576.352-1.27.352-2.08 0-.8-.117-1.488-.352-2.064a2.63 2.63 0 0 0-1.168-1.328c-.544-.31-1.285-.464-2.224-.464h-1.68v7.696Zm13.135 1.952c-.8 0-1.51-.17-2.128-.512a3.705 3.705 0 0 1-1.456-1.44c-.352-.619-.528-1.333-.528-2.144 0-.821.17-1.552.512-2.192a3.791 3.791 0 0 1 1.44-1.488c.619-.363 1.344-.544 2.176-.544.779 0 1.467.17 2.064.512.597.341 1.061.81 1.392 1.408.341.587.512 1.243.512 1.968 0 .117-.005.24-.016.368 0 .128-.005.261-.016.4h-6.032c.043.619.256 1.104.64 1.456.395.352.87.528 1.424.528.416 0 .763-.09 1.04-.272a1.77 1.77 0 0 0 .64-.736h2.08c-.15.501-.4.96-.752 1.376a3.616 3.616 0 0 1-1.28.96c-.501.235-1.072.352-1.712.352Zm.016-6.656c-.501 0-.944.144-1.328.432-.384.277-.63.704-.736 1.28h3.952c-.032-.523-.224-.939-.576-1.248-.352-.31-.79-.464-1.312-.464Zm8.97 6.656c-.704 0-1.322-.112-1.856-.336-.533-.235-.96-.555-1.28-.96a2.756 2.756 0 0 1-.575-1.408h2.063c.065.31.235.576.513.8.287.213.656.32 1.103.32.449 0 .774-.09.977-.272.213-.181.32-.39.32-.624 0-.341-.15-.57-.449-.688-.298-.128-.714-.25-1.247-.368a13.638 13.638 0 0 1-1.04-.272 5.344 5.344 0 0 1-.977-.4 2.262 2.262 0 0 1-.703-.64c-.182-.267-.272-.592-.272-.976 0-.704.277-1.296.831-1.776.566-.48 1.355-.72 2.368-.72.94 0 1.686.219 2.24.656.566.437.902 1.04 1.008 1.808h-1.936c-.117-.587-.56-.88-1.328-.88-.383 0-.682.075-.895.224-.203.15-.305.336-.305.56 0 .235.155.421.465.56.309.139.72.267 1.231.384.555.128 1.062.272 1.52.432.47.15.843.379 1.12.688.278.299.416.73.416 1.296.011.49-.117.933-.383 1.328-.267.395-.651.704-1.153.928-.5.224-1.093.336-1.776.336Zm6.23-9.36c-.373 0-.682-.112-.927-.336a1.122 1.122 0 0 1-.352-.848c0-.341.117-.619.352-.832.245-.224.554-.336.928-.336.373 0 .677.112.912.336.245.213.368.49.368.832a1.1 1.1 0 0 1-.368.848c-.235.224-.539.336-.912.336ZM77.465 25v-7.936h2.048V25h-2.048Zm7.545-2.368c-.384 0-.741-.043-1.072-.128l-.592.592c.182.096.427.176.736.24.31.064.811.128 1.504.192 1.056.096 1.824.347 2.304.752.48.405.72.965.72 1.68 0 .47-.128.912-.384 1.328-.256.427-.65.768-1.184 1.024-.533.267-1.216.4-2.048.4-1.13 0-2.042-.213-2.736-.64-.693-.416-1.04-1.045-1.04-1.888 0-.715.347-1.333 1.04-1.856a3.877 3.877 0 0 1-.56-.304 3.166 3.166 0 0 1-.4-.336v-.368l1.392-1.472c-.618-.544-.928-1.243-.928-2.096 0-.533.128-1.019.384-1.456.267-.437.64-.784 1.12-1.04.48-.256 1.062-.384 1.744-.384.448 0 .864.064 1.248.192h3.008v1.248l-1.36.096c.214.405.32.853.32 1.344 0 .533-.128 1.019-.384 1.456-.256.437-.629.784-1.12 1.04-.48.256-1.05.384-1.712.384Zm0-1.568c.416 0 .758-.112 1.024-.336.278-.224.416-.544.416-.96 0-.416-.138-.736-.416-.96-.266-.224-.608-.336-1.024-.336-.437 0-.789.112-1.056.336-.266.224-.4.544-.4.96 0 .416.134.736.4.96.267.224.619.336 1.056.336Zm-1.92 4.912c0 .395.182.688.544.88.374.203.827.304 1.36.304.512 0 .928-.107 1.248-.32.32-.203.48-.48.48-.832a.929.929 0 0 0-.32-.72c-.202-.192-.613-.31-1.232-.352-.437-.032-.842-.08-1.216-.144-.309.17-.533.357-.672.56-.128.203-.192.41-.192.624ZM90.76 25v-7.936h1.808l.16 1.344c.245-.47.597-.843 1.056-1.12.47-.277 1.018-.416 1.648-.416.981 0 1.744.31 2.288.928.544.619.816 1.525.816 2.72V25h-2.048v-4.288c0-.683-.139-1.205-.416-1.568-.278-.363-.71-.544-1.296-.544-.576 0-1.05.203-1.424.608-.363.405-.544.97-.544 1.696V25h-2.048Zm9.782 0V13.8h4.144c.896 0 1.637.15 2.224.448.587.299 1.024.71 1.312 1.232.288.523.432 1.11.432 1.76a3.6 3.6 0 0 1-.416 1.712c-.277.512-.709.928-1.296 1.248-.587.31-1.339.464-2.256.464h-2.096V25h-2.048Zm2.048-6h1.968c.715 0 1.227-.155 1.536-.464.32-.32.48-.752.48-1.296 0-.555-.16-.987-.48-1.296-.309-.32-.821-.48-1.536-.48h-1.968V19Zm9.859 6.192c-.683 0-1.243-.107-1.68-.32-.437-.224-.763-.517-.976-.88a2.327 2.327 0 0 1-.32-1.2c0-.736.288-1.333.864-1.792.576-.459 1.44-.688 2.592-.688h2.016v-.192c0-.544-.155-.944-.464-1.2-.309-.256-.693-.384-1.152-.384-.416 0-.779.101-1.088.304-.309.192-.501.48-.576.864h-2a2.82 2.82 0 0 1 .576-1.504 3.266 3.266 0 0 1 1.312-.976c.533-.235 1.131-.352 1.792-.352 1.131 0 2.021.283 2.672.848.651.565.976 1.365.976 2.4V25h-1.744l-.192-1.28a2.934 2.934 0 0 1-.992 1.056c-.416.277-.955.416-1.616.416Zm.464-1.6c.587 0 1.04-.192 1.36-.576.331-.384.539-.859.624-1.424h-1.744c-.544 0-.933.101-1.168.304a.893.893 0 0 0-.352.72c0 .31.117.55.352.72.235.17.544.256.928.256ZM118.946 25V13.48h2.048V25h-2.048Z"/><path fill="#1127E3" fill-rule="evenodd" d="M.992 19.445v14.492a4.576 4.576 0 0 0 4.577 4.577h28.983a4.576 4.576 0 0 0 4.577-4.577V4.953A4.576 4.576 0 0 0 34.552.377H5.57A4.576 4.576 0 0 0 .992 4.953v14.492Zm20.493-6.735c1.51.277 2.87 1.142 3.884 2.474a7.26 7.26 0 0 1 1.43 3.467c.04.296.046 1.191.01 1.483-.216 1.75-1.019 3.385-2.248 4.582-.297.289-.534.48-.875.708a4.805 4.805 0 0 1-1.827.751 2.405 2.405 0 0 1-.44.041l-3.958.005a4.175 4.175 0 0 1-4.18-4.175v-5.4a3.98 3.98 0 0 1 3.98-3.98h3.732c.165 0 .33.014.492.044Zm-4.504.405c-.27.111-.596.35-1.57 1.146-1.391 1.139-1.565 1.283-1.592 1.324a.315.315 0 0 0-.013.278c.026.059.703.966.78 1.046.008.008.808-.611 1.778-1.376l1.77-1.395c.006-.005-.567-.761-.694-.915-.125-.152-.269-.186-.459-.108Zm.855 2.052c-.374.296-.695.548-.713.561-.03.023-.025.035.096.202l.081.112a.078.078 0 0 0 .11.015l.516-.395c.28-.215.653-.267.982-.137l.533.212c.646.255 1.08.437 1.108.462.096.09.052-.157.799 4.49l.203 1.251c.004.018.002.03-.005.027-.012-.006-.527-.544-1.661-1.737a99.418 99.418 0 0 1-.546-.578.071.071 0 0 1-.001-.094l.174-.201c.338-.389.419-.556.404-.837a.7.7 0 0 0-.23-.494c-.308-.306-.7-.36-1.028-.143-.127.084-.18.144-.53.6l-.168.218a.272.272 0 0 0 .021.355c.171.176.448.458 1.932 1.97.848.863 1.01 1.032.99 1.032-.006 0-.318-.14-.695-.31l-2.416-1.088a98.473 98.473 0 0 1-1.778-.812c-.103-.071-.11-.105-.243-1.273-.069-.6-.124-1.109-.124-1.13 0-.03.137-.143.6-.497.33-.252.6-.463.6-.47 0-.008-.172-.247-.24-.332-.003-.004-.375.286-.827.643-.808.638-.822.65-.813.704.005.03.065.55.133 1.158.068.607.137 1.147.152 1.2.072.258.268.504.496.623.066.034.866.398 1.779.808l3.3 1.484c.904.406 1.645.736 1.648.732.004-.003-.157-1.022-.357-2.263l-.585-3.635c-.14-.869-.236-1.42-.262-1.494a1.07 1.07 0 0 0-.44-.535c-.04-.024-.57-.24-1.177-.479a59.52 59.52 0 0 1-1.12-.45c-.01-.007-.31.218-.698.525Zm1.317 3.124a.472.472 0 0 1 .244.222c.088.176.047.296-.207.61a.229.229 0 0 1-.342.016l-.098-.102a4.541 4.541 0 0 1-.279-.302c0-.02.167-.235.255-.33.126-.134.28-.176.427-.114Z" clip-rule="evenodd"/></svg>